<svg width="9" height="6" viewBox="0 0 9 6" fill="none" xmlns="http://www.w3.org/2000/svg">
<path d="M0.331973 0.674823C0.450308 0.556524 0.610783 0.490067 0.778109 0.490067C0.945435 0.490067 1.10591 0.556524 1.22425 0.674823L4.56427 4.01485L7.9043 0.674823C7.96251 0.614554 8.03214 0.56648 8.10913 0.533409C8.18612 0.500337 8.26892 0.48293 8.35271 0.482202C8.43649 0.481473 8.51959 0.49744 8.59714 0.529169C8.67469 0.560897 8.74514 0.607753 8.80439 0.667002C8.86364 0.726251 8.9105 0.796706 8.94223 0.874257C8.97396 0.951808 8.98992 1.0349 8.98919 1.11869C8.98847 1.20248 8.97106 1.28528 8.93799 1.36227C8.90491 1.43925 8.85684 1.50889 8.79657 1.5671L5.01041 5.35326C4.89207 5.47156 4.7316 5.53802 4.56427 5.53802C4.39695 5.53802 4.23647 5.47156 4.11814 5.35326L0.331973 1.5671C0.213674 1.44876 0.147217 1.28829 0.147217 1.12096C0.147217 0.953634 0.213674 0.793158 0.331973 0.674823Z" fill="#3F72AF"/>
</svg>
