<svg width="53" height="42" viewBox="0 0 53 42" fill="none" xmlns="http://www.w3.org/2000/svg">
<path d="M30.541 33.0661C30.2111 33.067 29.8851 33.0096 29.5871 32.8982C29.289 32.7867 29.0264 32.6241 28.8185 32.4222L18.1523 21.9803C17.8275 21.6689 17.6499 21.2783 17.6499 20.8752C17.6499 20.4721 17.8275 20.0815 18.1523 19.7701L29.1939 9.32816C29.5688 8.97276 30.1074 8.74926 30.6914 8.70683C31.2753 8.6644 31.8567 8.80652 32.3077 9.10192C32.7587 9.39731 33.0423 9.8218 33.0961 10.282C33.1499 10.7422 32.9696 11.2004 32.5948 11.5558L22.7235 20.8839L32.2635 30.212C32.5336 30.4674 32.7051 30.7785 32.7578 31.1084C32.8106 31.4383 32.7423 31.7731 32.5611 32.0734C32.3799 32.3736 32.0933 32.6267 31.7353 32.8026C31.3773 32.9786 30.9629 33.07 30.541 33.0661Z" fill="white"/>
</svg>
