<svg width="15" height="15" viewBox="0 0 15 15" fill="none" xmlns="http://www.w3.org/2000/svg">
<g clip-path="url(#clip0_349_418)">
<path d="M14.9832 5.8493L14.5865 5.15622C14.5687 5.12566 14.5394 5.10341 14.5053 5.09431C14.4711 5.08522 14.4347 5.09002 14.404 5.10767L13.5552 5.6032L12.2444 1.98378C12.1752 1.76781 12.0392 1.57943 11.8559 1.44582C11.6726 1.31222 11.4517 1.24031 11.2249 1.24048H3.97097C3.39006 1.24048 2.87443 1.61548 2.6953 2.16961L1.44642 5.60488L0.595972 5.10934C0.565311 5.09169 0.528911 5.08689 0.494722 5.09599C0.460532 5.10508 0.431331 5.12734 0.413494 5.15789L0.0167309 5.8493C-0.0200994 5.91291 0.00166398 5.99327 0.0652801 6.0301L1.07644 6.61939L0.833695 7.28903C0.813606 7.3426 0.803561 7.39952 0.803561 7.45644V13.2857C0.803561 13.5485 1.00111 13.7611 1.24385 13.7611H2.37555C2.58146 13.7611 2.76059 13.6054 2.80412 13.3878L2.93303 12.7567H12.067L12.1959 13.3878C12.2411 13.6054 12.4185 13.7611 12.6244 13.7611H13.7561C13.9989 13.7611 14.1964 13.5485 14.1964 13.2857V7.45644C14.1964 7.39952 14.1864 7.3426 14.1663 7.28903L13.9235 6.61939L14.933 6.0301C14.9634 6.01255 14.9857 5.98378 14.9951 5.94996C15.0045 5.91615 15.0002 5.88 14.9832 5.8493ZM3.3482 9.32474C2.97823 9.32474 2.67856 9.02508 2.67856 8.6551C2.67856 8.28512 2.97823 7.98546 3.3482 7.98546C3.71818 7.98546 4.01785 8.28512 4.01785 8.6551C4.01785 9.02508 3.71818 9.32474 3.3482 9.32474ZM9.84374 10.5803C9.84374 10.654 9.78347 10.7143 9.70981 10.7143H5.29017C5.21651 10.7143 5.15624 10.654 5.15624 10.5803V9.17407C5.15624 9.10041 5.21651 9.04014 5.29017 9.04014H5.95981C6.03347 9.04014 6.09374 9.10041 6.09374 9.17407V9.77675H8.90624V9.17407C8.90624 9.10041 8.96651 9.04014 9.04017 9.04014H9.70981C9.78347 9.04014 9.84374 9.10041 9.84374 9.17407V10.5803ZM11.6518 9.32474C11.2818 9.32474 10.9821 9.02508 10.9821 8.6551C10.9821 8.28512 11.2818 7.98546 11.6518 7.98546C12.0218 7.98546 12.3214 8.28512 12.3214 8.6551C12.3214 9.02508 12.0218 9.32474 11.6518 9.32474ZM2.6116 5.92631L3.82867 2.57976L3.83704 2.558L3.84374 2.53624C3.86216 2.48099 3.91238 2.44416 3.97097 2.44416H11.1295L12.3917 5.92631H2.6116Z" fill="black"/>
</g>
<defs>
<clipPath id="clip0_349_418">
<rect width="15" height="15" fill="white"/>
</clipPath>
</defs>
</svg>
