<svg width="24" height="24" viewBox="0 0 30 27" fill="none" xmlns="http://www.w3.org/2000/svg">
<path fill-rule="evenodd" clip-rule="evenodd" d="M13.1594 0.69635C13.6767 0.247009 14.3357 0 15.0172 0C15.6987 0 16.3577 0.247009 16.875 0.69635L25.9158 8.54366L29.4645 11.4196C29.6108 11.5382 29.7327 11.6848 29.8231 11.8511C29.9135 12.0174 29.9706 12.2001 29.9913 12.3888C30.012 12.5775 29.9957 12.7685 29.9435 12.9508C29.8914 13.1331 29.8042 13.3033 29.6871 13.4515C29.57 13.5997 29.4252 13.7231 29.261 13.8146C29.0968 13.9062 28.9164 13.9641 28.7301 13.985C28.5438 14.006 28.3553 13.9895 28.1752 13.9367C27.9952 13.8838 27.8272 13.7955 27.6809 13.6769L26.4323 12.6653V24.1096C26.4323 24.8762 26.1317 25.6114 25.5965 26.1534C25.0613 26.6955 24.3354 27 23.5786 27H17.871V19.7741C17.871 19.0076 17.5703 18.2724 17.0351 17.7303C16.4999 17.1883 15.774 16.8838 15.0172 16.8838C14.2603 16.8838 13.5344 17.1883 12.9992 17.7303C12.4641 18.2724 12.1634 19.0076 12.1634 19.7741V27H6.4558C5.69893 27 4.97306 26.6955 4.43787 26.1534C3.90268 25.6114 3.60201 24.8762 3.60201 24.1096V12.6639L2.35348 13.6755C2.20812 13.8012 2.03932 13.896 1.85708 13.9544C1.67484 14.0128 1.48288 14.0334 1.29259 14.0152C1.10231 13.997 0.917579 13.9402 0.749367 13.8483C0.581155 13.7564 0.43289 13.6312 0.313374 13.4801C0.193858 13.3291 0.105526 13.1552 0.0536214 12.9689C0.00171696 12.7826 -0.0127018 12.5876 0.0112207 12.3956C0.0351433 12.2035 0.0969196 12.0183 0.192883 11.8509C0.288846 11.6835 0.41704 11.5373 0.569856 11.421L4.11855 8.5451L13.1594 0.69635Z" fill="white"/>
</svg>
