<svg width="32" height="32" viewBox="0 0 32 32" fill="none" xmlns="http://www.w3.org/2000/svg">
<path d="M16.0002 28C15.8247 28.001 15.6507 27.9674 15.4883 27.9011C15.3258 27.8347 15.1781 27.7369 15.0535 27.6134L4.69349 17.24C3.39397 15.9269 2.66504 14.1541 2.66504 12.3067C2.66504 10.4593 3.39397 8.68645 4.69349 7.37336C6.00317 6.06737 7.77726 5.33398 9.62682 5.33398C11.4764 5.33398 13.2505 6.06737 14.5602 7.37336L16.0002 8.81336L17.4402 7.37336C18.7498 6.06737 20.5239 5.33398 22.3735 5.33398C24.223 5.33398 25.9971 6.06737 27.3068 7.37336C28.6063 8.68645 29.3353 10.4593 29.3353 12.3067C29.3353 14.1541 28.6063 15.9269 27.3068 17.24L16.9468 27.6134C16.8222 27.7369 16.6745 27.8347 16.512 27.9011C16.3496 27.9674 16.1756 28.001 16.0002 28Z" fill="#FF5555"/>
</svg>
