<svg width="14" height="14" viewBox="0 0 14 14" fill="none" xmlns="http://www.w3.org/2000/svg">
<path d="M12.7234 5.12656L8.87345 1.27656C8.77189 1.175 8.63907 1.125 8.50626 1.125C8.37345 1.125 8.24064 1.175 8.13907 1.27656L5.62189 3.79531C5.43126 3.77344 5.23907 3.76406 5.04689 3.76406C3.90314 3.76406 2.75939 4.14063 1.82032 4.89375C1.76346 4.93941 1.71685 4.99654 1.68353 5.06141C1.65022 5.12629 1.63094 5.19745 1.62696 5.27027C1.62298 5.34309 1.63439 5.41593 1.66043 5.48405C1.68648 5.55217 1.72659 5.61404 1.77814 5.66563L4.6172 8.50469L1.25157 11.8672C1.21033 11.9082 1.18488 11.9624 1.1797 12.0203L1.12657 12.6016C1.11251 12.7484 1.2297 12.8734 1.37501 12.8734C1.38282 12.8734 1.39064 12.8734 1.39845 12.8719L1.9797 12.8188C2.03751 12.8141 2.0922 12.7875 2.13282 12.7469L5.49845 9.38125L8.33751 12.2203C8.43907 12.3219 8.57189 12.3719 8.7047 12.3719C8.85626 12.3719 9.00626 12.3063 9.10939 12.1781C9.98907 11.0797 10.3547 9.70469 10.2063 8.375L12.7234 5.85781C12.925 5.65781 12.925 5.32969 12.7234 5.12656ZM9.40939 7.58281L9.02657 7.96562L9.08595 8.50313C9.17906 9.33448 9.01317 10.1743 8.61095 10.9078L3.09376 5.3875C3.29532 5.27656 3.5047 5.18281 3.72345 5.10781C4.14845 4.96094 4.59376 4.8875 5.04689 4.8875C5.19689 4.8875 5.34845 4.89531 5.49845 4.9125L6.03595 4.97188L6.41876 4.58906L8.50782 2.5L11.5 5.49219L9.40939 7.58281Z" fill="black"/>
</svg>
