<svg width="36" height="36" viewBox="0 0 36 36" fill="none" xmlns="http://www.w3.org/2000/svg">
<path d="M17.5185 30.6572C17.3264 30.6583 17.136 30.6215 16.9581 30.5488C16.7802 30.4762 16.6185 30.3691 16.482 30.2338L5.13891 18.8761C3.71607 17.4384 2.91797 15.4973 2.91797 13.4746C2.91797 11.4519 3.71607 9.51082 5.13891 8.07311C6.57288 6.64319 8.51533 5.84021 10.5404 5.84021C12.5655 5.84021 14.5079 6.64319 15.9419 8.07311L17.5185 9.64976L19.0952 8.07311C20.5292 6.64319 22.4716 5.84021 24.4967 5.84021C26.5218 5.84021 28.4642 6.64319 29.8982 8.07311C31.321 9.51082 32.1191 11.4519 32.1191 13.4746C32.1191 15.4973 31.321 17.4384 29.8982 18.8761L18.555 30.2338C18.4186 30.3691 18.2569 30.4762 18.079 30.5488C17.9011 30.6215 17.7107 30.6583 17.5185 30.6572ZM10.5404 8.75925C9.92241 8.75645 9.31 8.8763 8.73865 9.11185C8.1673 9.34741 7.64837 9.69399 7.21192 10.1315C6.33025 11.0178 5.83532 12.2171 5.83532 13.4673C5.83532 14.7175 6.33025 15.9168 7.21192 16.8031L17.5185 27.1243L27.8252 16.8031C28.7068 15.9168 29.2018 14.7175 29.2018 13.4673C29.2018 12.2171 28.7068 11.0178 27.8252 10.1315C26.9254 9.28145 25.7345 8.80785 24.4967 8.80785C23.2589 8.80785 22.068 9.28145 21.1682 10.1315L18.555 12.7593C18.4193 12.8961 18.2579 13.0047 18.08 13.0788C17.9021 13.1529 17.7113 13.1911 17.5185 13.1911C17.3258 13.1911 17.135 13.1529 16.9571 13.0788C16.7792 13.0047 16.6178 12.8961 16.482 12.7593L13.8689 10.1315C13.4324 9.69399 12.9135 9.34741 12.3422 9.11185C11.7708 8.8763 11.1584 8.75645 10.5404 8.75925Z" fill="#FF5555"/>
</svg>
