<svg width="17" height="17" viewBox="0 0 17 17" fill="none" xmlns="http://www.w3.org/2000/svg">
<path d="M13.4584 7.79171H9.20837V3.54171C9.20837 3.35385 9.13375 3.17368 9.00091 3.04084C8.86807 2.908 8.6879 2.83337 8.50004 2.83337C8.31218 2.83337 8.13201 2.908 7.99917 3.04084C7.86633 3.17368 7.79171 3.35385 7.79171 3.54171V7.79171H3.54171C3.35385 7.79171 3.17368 7.86633 3.04084 7.99917C2.908 8.13201 2.83337 8.31218 2.83337 8.50004C2.83337 8.6879 2.908 8.86807 3.04084 9.00091C3.17368 9.13375 3.35385 9.20837 3.54171 9.20837H7.79171V13.4584C7.79171 13.6462 7.86633 13.8264 7.99917 13.9592C8.13201 14.0921 8.31218 14.1667 8.50004 14.1667C8.6879 14.1667 8.86807 14.0921 9.00091 13.9592C9.13375 13.8264 9.20837 13.6462 9.20837 13.4584V9.20837H13.4584C13.6462 9.20837 13.8264 9.13375 13.9592 9.00091C14.0921 8.86807 14.1667 8.6879 14.1667 8.50004C14.1667 8.31218 14.0921 8.13201 13.9592 7.99917C13.8264 7.86633 13.6462 7.79171 13.4584 7.79171Z" fill="#231F20"/>
</svg>
