<svg width="38" height="38" viewBox="0 0 38 38" fill="none" xmlns="http://www.w3.org/2000/svg">
<path d="M19 7.18899e-07C15.2422 7.18899e-07 11.5687 1.11433 8.44417 3.20208C5.31964 5.28982 2.88436 8.25722 1.4463 11.729C0.0082324 15.2008 -0.368031 19.0211 0.365088 22.7067C1.09821 26.3924 2.90778 29.7778 5.56498 32.435C8.22218 35.0922 11.6077 36.9018 15.2933 37.6349C18.9789 38.368 22.7992 37.9918 26.271 36.5537C29.7428 35.1156 32.7102 32.6804 34.7979 29.5558C36.8857 26.4313 38 22.7578 38 19C38.0007 16.5047 37.5097 14.0337 36.5551 11.7282C35.6005 9.42271 34.201 7.32789 32.4366 5.56344C30.6721 3.79899 28.5773 2.39949 26.2718 1.44489C23.9663 0.490295 21.4953 -0.000685774 19 7.18899e-07ZM19 8.3125C20.4092 8.3125 21.7867 8.73038 22.9584 9.51328C24.1301 10.2962 25.0434 11.409 25.5826 12.7109C26.1219 14.0128 26.263 15.4454 25.9881 16.8275C25.7132 18.2096 25.0346 19.4792 24.0381 20.4756C23.0417 21.4721 21.7721 22.1507 20.39 22.4256C19.0079 22.7005 17.5753 22.5594 16.2734 22.0201C14.9715 21.4809 13.8587 20.5676 13.0758 19.3959C12.2929 18.2242 11.875 16.8467 11.875 15.4375C11.8738 14.5015 12.0572 13.5744 12.4148 12.7094C12.7724 11.8444 13.2972 11.0584 13.9591 10.3966C14.6209 9.73471 15.4069 9.20993 16.2719 8.85231C17.1369 8.49469 18.064 8.31125 19 8.3125ZM19 34.4375C16.6866 34.4377 14.4029 33.9168 12.3183 32.9136C10.2338 31.9104 8.40191 30.4506 6.95876 28.6425C10.5103 26.2283 14.7056 24.9375 19 24.9375C23.2944 24.9375 27.4897 26.2283 31.0413 28.6425C29.5981 30.4506 27.7663 31.9104 25.6817 32.9136C23.5972 33.9168 21.3134 34.4377 19 34.4375Z" fill="#3F72AF"/>
</svg>
