<svg width="21" height="21" viewBox="0 0 21 21" fill="none" xmlns="http://www.w3.org/2000/svg">
<circle cx="10.5" cy="10.5" r="10.5" fill="#F9F7F7"/>
<path d="M10.5362 4.99659C9.80641 4.99659 9.1065 5.2865 8.59045 5.80255C8.0744 6.3186 7.78449 7.01851 7.78449 7.74831C7.78449 8.47812 8.0744 9.17803 8.59045 9.69408C9.1065 10.2101 9.80641 10.5 10.5362 10.5C11.266 10.5 11.9659 10.2101 12.482 9.69408C12.998 9.17803 13.2879 8.47812 13.2879 7.74831C13.2879 7.01851 12.998 6.3186 12.482 5.80255C11.9659 5.2865 11.266 4.99659 10.5362 4.99659ZM6.40863 7.74831C6.40863 6.65361 6.8435 5.60374 7.61757 4.82967C8.39164 4.0556 9.44151 3.62073 10.5362 3.62073C11.6309 3.62073 12.6808 4.0556 13.4549 4.82967C14.2289 5.60374 14.6638 6.65361 14.6638 7.74831C14.6638 8.84302 14.2289 9.89289 13.4549 10.667C12.6808 11.441 11.6309 11.8759 10.5362 11.8759C9.44151 11.8759 8.39164 11.441 7.61757 10.667C6.8435 9.89289 6.40863 8.84302 6.40863 7.74831ZM7.78449 14.6276C7.23714 14.6276 6.7122 14.8451 6.32517 15.2321C5.93813 15.6191 5.7207 16.1441 5.7207 16.6914C5.7207 16.8739 5.64822 17.0488 5.5192 17.1779C5.39019 17.3069 5.21521 17.3793 5.03276 17.3793C4.85031 17.3793 4.67534 17.3069 4.54632 17.1779C4.41731 17.0488 4.34483 16.8739 4.34483 16.6914C4.34483 15.7792 4.70722 14.9043 5.35228 14.2592C5.99735 13.6142 6.87223 13.2518 7.78449 13.2518H13.2879C14.2002 13.2518 15.0751 13.6142 15.7201 14.2592C16.3652 14.9043 16.7276 15.7792 16.7276 16.6914C16.7276 16.8739 16.6551 17.0488 16.5261 17.1779C16.3971 17.3069 16.2221 17.3793 16.0397 17.3793C15.8572 17.3793 15.6822 17.3069 15.5532 17.1779C15.4242 17.0488 15.3517 16.8739 15.3517 16.6914C15.3517 16.1441 15.1343 15.6191 14.7473 15.2321C14.3602 14.8451 13.8353 14.6276 13.2879 14.6276H7.78449Z" fill="#3F72AF"/>
</svg>
