<svg width="19" height="15" viewBox="0 0 19 15" fill="none" xmlns="http://www.w3.org/2000/svg">
<path d="M0 1.17326C0 0.862091 0.123611 0.563668 0.34364 0.34364C0.563668 0.123611 0.862091 0 1.17326 0H17.5989C17.91 0 18.2085 0.123611 18.4285 0.34364C18.6485 0.563668 18.7721 0.862091 18.7721 1.17326C18.7721 1.48443 18.6485 1.78285 18.4285 2.00288C18.2085 2.2229 17.91 2.34652 17.5989 2.34652H1.17326C0.862091 2.34652 0.563668 2.2229 0.34364 2.00288C0.123611 1.78285 0 1.48443 0 1.17326ZM0 7.03955C0 6.72838 0.123611 6.42996 0.34364 6.20993C0.563668 5.9899 0.862091 5.86629 1.17326 5.86629H17.5989C17.91 5.86629 18.2085 5.9899 18.4285 6.20993C18.6485 6.42996 18.7721 6.72838 18.7721 7.03955C18.7721 7.35072 18.6485 7.64914 18.4285 7.86917C18.2085 8.08919 17.91 8.21281 17.5989 8.21281H1.17326C0.862091 8.21281 0.563668 8.08919 0.34364 7.86917C0.123611 7.64914 0 7.35072 0 7.03955ZM0 12.9058C0 12.5947 0.123611 12.2962 0.34364 12.0762C0.563668 11.8562 0.862091 11.7326 1.17326 11.7326H17.5989C17.91 11.7326 18.2085 11.8562 18.4285 12.0762C18.6485 12.2962 18.7721 12.5947 18.7721 12.9058C18.7721 13.217 18.6485 13.5154 18.4285 13.7355C18.2085 13.9555 17.91 14.0791 17.5989 14.0791H1.17326C0.862091 14.0791 0.563668 13.9555 0.34364 13.7355C0.123611 13.5154 0 13.217 0 12.9058Z" fill="white"/>
</svg>
