<svg width="16" height="16" viewBox="0 0 16 16" fill="none" xmlns="http://www.w3.org/2000/svg">
<path d="M6.4043 1.60016C5.13041 1.60016 3.90869 2.10621 3.00791 3.00699C2.10713 3.90777 1.60108 5.12949 1.60108 6.40339C1.60108 7.67728 2.10713 8.899 3.00791 9.79978C3.90869 10.7006 5.13041 11.2066 6.4043 11.2066C7.6782 11.2066 8.89991 10.7006 9.80069 9.79978C10.7015 8.899 11.2075 7.67728 11.2075 6.40339C11.2075 5.12949 10.7015 3.90777 9.80069 3.00699C8.89991 2.10621 7.6782 1.60016 6.4043 1.60016ZM3.95596e-08 6.40339C0.000145959 5.38419 0.243538 4.37974 0.709948 3.47353C1.17636 2.56732 1.85232 1.78551 2.68164 1.19307C3.51097 0.600641 4.46972 0.214696 5.4782 0.0673142C6.48669 -0.0800673 7.51578 0.015371 8.47997 0.345697C9.44415 0.676024 10.3156 1.2317 11.0218 1.96654C11.728 2.70138 12.2487 3.59417 12.5405 4.5707C12.8323 5.54723 12.8868 6.5793 12.6995 7.58114C12.5123 8.58298 12.0886 9.52566 11.4637 10.3308L15.7762 14.6433C15.922 14.7943 16.0027 14.9965 16.0009 15.2064C15.9991 15.4163 15.9149 15.6171 15.7664 15.7655C15.618 15.914 15.4172 15.9981 15.2073 16C14.9974 16.0018 14.7952 15.9211 14.6442 15.7753L10.3317 11.4628C9.38507 12.1978 8.25116 12.6523 7.05895 12.7748C5.86675 12.8974 4.66408 12.6829 3.58773 12.1558C2.51137 11.6287 1.60451 10.8102 0.970272 9.79326C0.336033 8.77635 -0.000133146 7.60187 3.95596e-08 6.40339Z" fill="#3F72AF"/>
</svg>
