<svg width="15" height="15" viewBox="0 0 15 15" fill="none" xmlns="http://www.w3.org/2000/svg">
<g clip-path="url(#clip0_349_420)">
<path d="M5.29017 10.7143H9.70981C9.78347 10.7143 9.84374 10.654 9.84374 10.5803V9.17407C9.84374 9.10041 9.78347 9.04014 9.70981 9.04014H9.04017C8.96651 9.04014 8.90624 9.10041 8.90624 9.17407V9.77675H6.09374V9.17407C6.09374 9.10041 6.03347 9.04014 5.95981 9.04014H5.29017C5.21651 9.04014 5.15624 9.10041 5.15624 9.17407V10.5803C5.15624 10.654 5.21651 10.7143 5.29017 10.7143ZM10.9821 8.6551C10.9821 8.8327 11.0527 9.00303 11.1783 9.12861C11.3038 9.25419 11.4742 9.32474 11.6518 9.32474C11.8294 9.32474 11.9997 9.25419 12.1253 9.12861C12.2509 9.00303 12.3214 8.8327 12.3214 8.6551C12.3214 8.4775 12.2509 8.30717 12.1253 8.18159C11.9997 8.05601 11.8294 7.98546 11.6518 7.98546C11.4742 7.98546 11.3038 8.05601 11.1783 8.18159C11.0527 8.30717 10.9821 8.4775 10.9821 8.6551ZM14.9832 5.8493L14.5865 5.15622C14.5687 5.12566 14.5394 5.10341 14.5053 5.09431C14.4711 5.08521 14.4347 5.09002 14.404 5.10767L13.5552 5.6032L12.2444 1.98378C12.1752 1.76781 12.0392 1.57943 11.8559 1.44582C11.6726 1.31222 11.4517 1.24031 11.2249 1.24048H3.97097C3.39006 1.24048 2.87443 1.61548 2.6953 2.16961L1.44642 5.60488L0.595972 5.10934C0.565311 5.09169 0.528911 5.08689 0.494722 5.09598C0.460532 5.10508 0.431331 5.12734 0.413494 5.15789L0.0167309 5.8493C-0.0200994 5.91291 0.00166398 5.99327 0.0652801 6.0301L1.07644 6.61938L0.833695 7.28903C0.813606 7.3426 0.803561 7.39952 0.803561 7.45644V13.2857C0.803561 13.5485 1.00111 13.7611 1.24385 13.7611H2.37555C2.58146 13.7611 2.76059 13.6054 2.80412 13.3878L2.93303 12.7567H12.067L12.1959 13.3878C12.2411 13.6054 12.4185 13.7611 12.6244 13.7611H13.7561C13.9989 13.7611 14.1964 13.5485 14.1964 13.2857V7.45644C14.1964 7.39952 14.1864 7.3426 14.1663 7.28903L13.9235 6.61938L14.933 6.0301C14.9634 6.01255 14.9857 5.98378 14.9951 5.94996C15.0045 5.91615 15.0002 5.88 14.9832 5.8493ZM12.9911 7.58367V11.5513H2.00892V7.58367L2.27008 6.8638H12.7299L12.9911 7.58367ZM3.82867 2.57976L3.83704 2.558L3.84374 2.53624C3.86216 2.48099 3.91238 2.44416 3.97097 2.44416H11.1295L12.3917 5.9263H2.6116L3.82867 2.57976ZM2.67856 8.6551C2.67856 8.8327 2.74911 9.00303 2.8747 9.12861C3.00028 9.25419 3.1706 9.32474 3.3482 9.32474C3.5258 9.32474 3.69613 9.25419 3.82171 9.12861C3.9473 9.00303 4.01785 8.8327 4.01785 8.6551C4.01785 8.4775 3.9473 8.30717 3.82171 8.18159C3.69613 8.05601 3.5258 7.98546 3.3482 7.98546C3.1706 7.98546 3.00028 8.05601 2.8747 8.18159C2.74911 8.30717 2.67856 8.4775 2.67856 8.6551Z" fill="black"/>
</g>
<defs>
<clipPath id="clip0_349_420">
<rect width="15" height="15" fill="white"/>
</clipPath>
</defs>
</svg>
